<svg width="24" height="24" viewBox="0 0 24 24" fill="none" xmlns="http://www.w3.org/2000/svg">
<path d="M2.47432 18.0317L10.7639 9.74219C11.0805 10.5375 11.545 11.2415 12.1576 11.8542C12.7706 12.4669 13.4744 12.9314 14.2695 13.248L5.9679 21.5499C5.66761 21.8502 5.30244 22.0002 4.87228 22.0002C4.4504 22.0002 4.08118 21.8502 3.76456 21.5499L2.47432 20.2352C2.16593 19.9428 2.01172 19.5778 2.01172 19.1395C2.01172 18.7094 2.16598 18.34 2.47432 18.0317Z" fill="#858585"/>
<path d="M21.8844 7.64827C21.8154 7.56701 21.72 7.5265 21.5985 7.5265C21.5255 7.5265 21.2395 7.67066 20.7402 7.95875C20.2412 8.24675 19.6913 8.57535 19.0909 8.94466C18.4902 9.31401 18.1696 9.51078 18.1292 9.53517L15.7797 8.23264V5.50591L19.3462 3.44855C19.476 3.35932 19.541 3.24569 19.541 3.10772C19.541 2.96984 19.476 2.85626 19.3462 2.76698C18.989 2.52344 18.5528 2.33473 18.0377 2.20086C17.5224 2.06698 17.0293 2 16.5587 2C15.0574 2 13.7732 2.53372 12.7062 3.60081C11.6388 4.66781 11.1055 5.95213 11.1055 7.45338C11.1055 8.95468 11.6391 10.239 12.7062 11.306C13.7732 12.3731 15.0574 12.9068 16.5587 12.9068C17.703 12.9068 18.752 12.5677 19.7055 11.8902C20.6588 11.2126 21.3265 10.3301 21.7079 9.24268C21.8944 8.69903 21.9877 8.26884 21.9877 7.95244C21.988 7.83101 21.9533 7.72954 21.8844 7.64827Z" fill="#858585"/>
</svg>
