<svg width="16" height="16" viewBox="0 0 16 16" fill="none" xmlns="http://www.w3.org/2000/svg">
<path d="M8 9.11154L11.711 5.23885C11.7802 5.16412 11.8629 5.10452 11.9544 5.06352C12.0459 5.02251 12.1442 5.00093 12.2438 5.00003C12.3433 4.99913 12.442 5.01892 12.5342 5.05826C12.6263 5.0976 12.71 5.15569 12.7804 5.22915C12.8508 5.30261 12.9065 5.38996 12.9442 5.48611C12.9819 5.58226 13.0008 5.68528 13 5.78916C12.9991 5.89304 12.9784 5.9957 12.9391 6.09116C12.8998 6.18661 12.8427 6.27294 12.7711 6.34511L8.53004 10.7709C8.38945 10.9176 8.19879 11 8 11C7.8012 11 7.61055 10.9176 7.46996 10.7709L3.22888 6.34511C3.15727 6.27294 3.10016 6.18661 3.06087 6.09116C3.02157 5.9957 3.00089 5.89304 3.00003 5.78916C2.99916 5.68528 3.01813 5.58226 3.05583 5.48611C3.09352 5.38996 3.14919 5.30261 3.21958 5.22915C3.28998 5.15569 3.37368 5.0976 3.46582 5.05826C3.55795 5.01892 3.65667 4.99913 3.75622 5.00003C3.85576 5.00093 3.95414 5.02251 4.04561 5.06352C4.13708 5.10452 4.2198 5.16412 4.28896 5.23885L8 9.11154Z" fill="#1D1D1E"/>
</svg>
