<svg width="16" height="16" viewBox="0 0 16 16" fill="none" xmlns="http://www.w3.org/2000/svg">
<g id="Icons / Back">
<path id="Shape" fill-rule="evenodd" clip-rule="evenodd" d="M3.98744 7.125H14.125C14.6082 7.125 15 7.51675 15 8C15 8.48325 14.6082 8.875 14.125 8.875H3.98744L8.61872 13.5063C8.96043 13.848 8.96043 14.402 8.61872 14.7437C8.27701 15.0854 7.72299 15.0854 7.38128 14.7437L1.25967 8.62211C1.24822 8.61078 1.23708 8.59914 1.22627 8.5872C1.15902 8.51302 1.10675 8.43009 1.06949 8.34231C1.02475 8.23717 1 8.12147 1 8C1 7.87853 1.02475 7.76283 1.06949 7.65769C1.10675 7.56991 1.15902 7.48698 1.22627 7.4128C1.23708 7.40086 1.24822 7.38922 1.25967 7.37789L7.38128 1.25628C7.72299 0.914573 8.27701 0.914573 8.61872 1.25628C8.96043 1.59799 8.96043 2.15201 8.61872 2.49372L3.98744 7.125Z" fill="#858585"/>
</g>
</svg>
