<svg width="10" height="10" viewBox="0 0 10 10" fill="none" xmlns="http://www.w3.org/2000/svg">
<path d="M7.56087 4.23968L4.73965 1.27288C4.60955 1.13122 4.53756 0.941496 4.53918 0.744563C4.54081 0.547629 4.61593 0.359247 4.74835 0.219989C4.88077 0.0807309 5.05991 0.00173969 5.24718 2.83931e-05C5.43445 -0.0016829 5.61487 0.0740227 5.74958 0.21084L9.78999 4.45975C9.85655 4.52934 9.90936 4.61208 9.94541 4.70321C9.98145 4.79435 10 4.89207 10 4.99077C10 5.08947 9.98145 5.1872 9.94541 5.27833C9.90936 5.36946 9.85655 5.4522 9.78999 5.52179L5.74958 9.7707C5.68369 9.84244 5.60488 9.89966 5.51774 9.93902C5.4306 9.97838 5.33688 9.99911 5.24204 9.99997C5.14721 10.0008 5.05316 9.98183 4.96538 9.94407C4.8776 9.9063 4.79786 9.85053 4.7308 9.78001C4.66374 9.70949 4.6107 9.62563 4.57479 9.53332C4.53888 9.44102 4.52081 9.34211 4.52163 9.24238C4.52245 9.14266 4.54216 9.0441 4.57959 8.95246C4.61702 8.86083 4.67143 8.77795 4.73965 8.70866L7.56087 5.74186H0.714233C0.524807 5.74186 0.343139 5.66273 0.209194 5.52187C0.0752493 5.38101 0 5.18997 0 4.99077C0 4.79157 0.0752493 4.60053 0.209194 4.45967C0.343139 4.31881 0.524807 4.23968 0.714233 4.23968H7.56087Z" fill="#858585"/>
</svg>
