<svg width="24" height="24" viewBox="0 0 24 24" fill="none" xmlns="http://www.w3.org/2000/svg">
<g id="Menu / Assets">
<path id="assets_ico" fill-rule="evenodd" clip-rule="evenodd" d="M22.3143 7.9054C22.8477 8.30536 22.8478 9.10545 22.3144 9.50549L20.4313 10.9179C19.8979 11.3179 19.8979 12.1179 20.4313 12.5179L22.3144 13.9302C22.8478 14.3303 22.8478 15.1304 22.3143 15.5303L13.2667 22.314C12.9112 22.5805 12.4224 22.5805 12.0669 22.314L3.01926 15.5303C2.48582 15.1304 2.48576 14.3303 3.01914 13.9303L4.90232 12.5179C5.43565 12.1179 5.43565 11.3179 4.90232 10.9179L3.01914 9.50549C2.48576 9.10545 2.48582 8.30536 3.01926 7.9054L12.0669 1.12179C12.4224 0.855239 12.9112 0.855238 13.2667 1.12178L22.3143 7.9054ZM12.6669 20.2232L20.0274 14.7304L17.6877 13.0033L12.6669 16.7388L7.64605 12.9731L5.30634 14.7304L12.6669 20.2232Z" fill="#858585"/>
</g>
</svg>
