<svg width="20" height="20" viewBox="0 0 20 20" fill="none" xmlns="http://www.w3.org/2000/svg">
<path d="M3 3.5V5.5C3 6.03043 3.21071 6.53914 3.58579 6.91421C3.96086 7.28929 4.46957 7.5 5 7.5C5.53043 7.5 6.03914 7.28929 6.41421 6.91421C6.78929 6.53914 7 6.03043 7 5.5V3.5H13V5.5C13 6.03043 13.2107 6.53914 13.5858 6.91421C13.9609 7.28929 14.4696 7.5 15 7.5C15.5304 7.5 16.0391 7.28929 16.4142 6.91421C16.7893 6.53914 17 6.03043 17 5.5V3.5C17.7956 3.5 18.5587 3.81607 19.1213 4.37868C19.6839 4.94129 20 5.70435 20 6.5V8.5H0V6.5C0 5.70435 0.31607 4.94129 0.87868 4.37868C1.44129 3.81607 2.20435 3.5 3 3.5ZM20 8.5V16.5C20 17.2956 19.6839 18.0587 19.1213 18.6213C18.5587 19.1839 17.7956 19.5 17 19.5H3C2.20435 19.5 1.44129 19.1839 0.87868 18.6213C0.31607 18.0587 0 17.2956 0 16.5L0 8.5H20ZM15 0.5C15.2652 0.5 15.5196 0.605357 15.7071 0.792893C15.8946 0.98043 16 1.23478 16 1.5V5.5C16 5.76522 15.8946 6.01957 15.7071 6.20711C15.5196 6.39464 15.2652 6.5 15 6.5C14.7348 6.5 14.4804 6.39464 14.2929 6.20711C14.1054 6.01957 14 5.76522 14 5.5V1.5C14 1.23478 14.1054 0.98043 14.2929 0.792893C14.4804 0.605357 14.7348 0.5 15 0.5ZM5 0.5C5.26522 0.5 5.51957 0.605357 5.70711 0.792893C5.89464 0.98043 6 1.23478 6 1.5V5.5C6 5.76522 5.89464 6.01957 5.70711 6.20711C5.51957 6.39464 5.26522 6.5 5 6.5C4.73478 6.5 4.48043 6.39464 4.29289 6.20711C4.10536 6.01957 4 5.76522 4 5.5V1.5C4 1.23478 4.10536 0.98043 4.29289 0.792893C4.48043 0.605357 4.73478 0.5 5 0.5Z" fill="#858585"/>
</svg>
