<svg width="25" height="26" viewBox="0 0 25 26" fill="none" xmlns="http://www.w3.org/2000/svg">
<path d="M21 13.5C21.0034 14.8199 20.6951 16.1219 20.1 17.3C19.3944 18.7118 18.3098 19.8992 16.9674 20.7293C15.6251 21.5594 14.0782 21.9994 12.5 22C11.1801 22.0035 9.87812 21.6951 8.7 21.1L3 23L4.9 17.3C4.30493 16.1219 3.99656 14.8199 4 13.5C4.00061 11.9218 4.44061 10.3749 5.27072 9.03258C6.10083 7.69028 7.28825 6.6056 8.7 5.90003C9.87812 5.30496 11.1801 4.99659 12.5 5.00003H13C15.0843 5.11502 17.053 5.99479 18.5291 7.47089C20.0052 8.94699 20.885 10.9157 21 13V13.5Z" fill="#858585" stroke="#858585" stroke-width="2" stroke-linecap="round" stroke-linejoin="round"/>
<circle cx="19" cy="6" r="5" fill="#FF5230" stroke="#2E2E2F" stroke-width="2"/>
</svg>
