<svg width="24" height="24" viewBox="0 0 24 24" fill="none" xmlns="http://www.w3.org/2000/svg">
<path d="M12 22C6.477 22 2 17.523 2 12C2 6.477 6.477 2 12 2C17.523 2 22 6.477 22 12C22 17.523 17.523 22 12 22ZM12 20C14.1217 20 16.1566 19.1571 17.6569 17.6569C19.1571 16.1566 20 14.1217 20 12C20 9.87827 19.1571 7.84344 17.6569 6.34315C16.1566 4.84285 14.1217 4 12 4C9.87827 4 7.84344 4.84285 6.34315 6.34315C4.84285 7.84344 4 9.87827 4 12C4 14.1217 4.84285 16.1566 6.34315 17.6569C7.84344 19.1571 9.87827 20 12 20Z" fill="#858585"/>
<path d="M10.939 12.8393L9.52495 11.4273C9.43271 11.3318 9.32236 11.2556 9.20036 11.2032C9.07835 11.1508 8.94713 11.1232 8.81435 11.122C8.68157 11.1209 8.54989 11.1462 8.427 11.1965C8.3041 11.2467 8.19245 11.321 8.09856 11.4149C8.00466 11.5088 7.93041 11.6204 7.88013 11.7433C7.82985 11.8662 7.80455 11.9979 7.8057 12.1307C7.80686 12.2635 7.83444 12.3947 7.88685 12.5167C7.93926 12.6387 8.01544 12.749 8.11095 12.8413L10.232 14.9623C10.4195 15.1498 10.6738 15.2551 10.939 15.2551C11.2041 15.2551 11.4584 15.1498 11.646 14.9623L15.889 10.7193C15.9845 10.627 16.0606 10.5167 16.1131 10.3947C16.1655 10.2727 16.193 10.1415 16.1942 10.0087C16.1954 9.87591 16.1701 9.74423 16.1198 9.62133C16.0695 9.49844 15.9952 9.38679 15.9013 9.29289C15.8075 9.199 15.6958 9.12475 15.5729 9.07447C15.45 9.02419 15.3183 8.99888 15.1856 9.00004C15.0528 9.00119 14.9216 9.02878 14.7995 9.08119C14.6775 9.1336 14.5672 9.20978 14.475 9.30529L10.939 12.8413V12.8393Z" fill="#858585"/>
</svg>
