<svg width="12" height="8" viewBox="0 0 12 8" fill="none" xmlns="http://www.w3.org/2000/svg">
<path d="M4.78879 7.78382C4.68378 7.78403 4.57976 7.76351 4.4827 7.72342C4.38564 7.68333 4.29745 7.62447 4.22319 7.55022L0.82959 4.15582C0.753132 4.08207 0.692125 3.99384 0.65013 3.89627C0.608136 3.7987 0.585994 3.69374 0.584996 3.58751C0.583999 3.48129 0.604166 3.37594 0.644321 3.27759C0.684476 3.17925 0.743815 3.08988 0.818876 3.01472C0.893936 2.93955 0.983215 2.88009 1.0815 2.83979C1.17979 2.7995 1.28512 2.77918 1.39134 2.78003C1.49756 2.78087 1.60255 2.80287 1.70019 2.84473C1.79782 2.88658 1.88614 2.94746 1.95999 3.02382L4.78799 5.85182L9.87999 0.761418C10.03 0.611305 10.2335 0.526931 10.4457 0.526856C10.6579 0.526781 10.8615 0.611011 11.0116 0.761018C11.1617 0.911024 11.2461 1.11452 11.2462 1.32673C11.2462 1.53895 11.162 1.7425 11.012 1.89262L5.35439 7.55022C5.28013 7.62447 5.19195 7.68333 5.09488 7.72342C4.99782 7.76351 4.8938 7.78403 4.78879 7.78382Z" fill="#858585"/>
</svg>
