<svg width="14" height="14" viewBox="0 0 14 14" fill="none" xmlns="http://www.w3.org/2000/svg">
<path d="M6.55234 8.257L1.74634 13.0617C1.68484 13.1253 1.61128 13.1761 1.52994 13.2111C1.44861 13.246 1.36113 13.2644 1.27261 13.2652C1.18409 13.2659 1.0963 13.2491 1.01437 13.2155C0.932441 13.182 0.858006 13.1325 0.795411 13.0699C0.732816 13.0073 0.683314 12.9329 0.649793 12.851C0.616273 12.769 0.599405 12.6812 0.600174 12.5927C0.600943 12.5042 0.619334 12.4167 0.654274 12.3354C0.689213 12.2541 0.740001 12.1805 0.803674 12.119L5.68634 7.23633C5.64833 7.02466 5.66209 6.80693 5.72643 6.60173C5.79078 6.39652 5.90381 6.20993 6.05588 6.05786C6.20794 5.90579 6.39454 5.79277 6.59974 5.72842C6.80495 5.66407 7.02267 5.65032 7.23434 5.68833L12.119 0.804329C12.2447 0.68289 12.4131 0.615694 12.5879 0.617213C12.7627 0.618732 12.9299 0.688844 13.0536 0.81245C13.1772 0.936055 13.2473 1.10326 13.2488 1.27806C13.2503 1.45286 13.1831 1.62126 13.0617 1.747L8.25634 6.55366C8.3412 6.79138 8.35685 7.04829 8.30146 7.29455C8.24607 7.5408 8.12192 7.76628 7.94344 7.94476C7.76496 8.12324 7.53948 8.24739 7.29323 8.30278C7.04697 8.35817 6.79006 8.34252 6.55234 8.25766V8.257ZM11.579 4.17233C12.833 4.895 13.6663 5.89366 13.6663 7.00033C13.6663 9.20966 10.361 10.9957 6.99967 11.0003C6.31565 11.0003 5.63351 10.9288 4.96434 10.787L6.20501 9.54699C6.66954 9.69216 7.16494 9.70742 7.63753 9.59114C8.11011 9.47486 8.54187 9.23146 8.88601 8.88733C9.23014 8.54319 9.47354 8.11143 9.58982 7.63885C9.7061 7.16626 9.69084 6.67086 9.54568 6.20633L11.579 4.17233ZM8.80567 3.175L7.58301 4.39766C7.14434 4.29919 6.6879 4.31322 6.25611 4.43845C5.82432 4.56369 5.43121 4.79605 5.1133 5.11396C4.7954 5.43186 4.56303 5.82498 4.4378 6.25677C4.31257 6.68855 4.29853 7.145 4.39701 7.58366L2.24567 9.73366C1.08901 9.019 0.333008 8.05699 0.333008 7.00033C0.333008 4.791 3.65567 2.989 6.99967 3.00033C7.60901 3.00233 8.21767 3.063 8.80567 3.175Z" fill="#858585"/>
</svg>
