<svg width="10" height="6" viewBox="0 0 10 6" fill="none" xmlns="http://www.w3.org/2000/svg">
<path d="M5.047 1.88556L1.747 5.18556C1.62126 5.307 1.45286 5.37419 1.27806 5.37267C1.10326 5.37115 0.936055 5.30104 0.81245 5.17744C0.688844 5.05383 0.618732 4.88662 0.617213 4.71182C0.615694 4.53703 0.68289 4.36863 0.804329 4.24289L4.57566 0.471558C4.70068 0.346577 4.87022 0.276367 5.047 0.276367C5.22377 0.276367 5.39331 0.346577 5.51833 0.471558L9.28966 4.24289C9.4111 4.36863 9.4783 4.53703 9.47678 4.71182C9.47526 4.88662 9.40515 5.05383 9.28154 5.17744C9.15794 5.30104 8.99073 5.37115 8.81593 5.37267C8.64113 5.37419 8.47273 5.307 8.347 5.18556L5.047 1.88556Z" fill="#858585"/>
</svg>
