<svg width="14" height="16" viewBox="0 0 14 16" fill="none" xmlns="http://www.w3.org/2000/svg">
<path fill-rule="evenodd" clip-rule="evenodd" d="M0.0668945 1.6C0.0668945 1.17565 0.235466 0.768687 0.535524 0.468629C0.835582 0.168571 1.24255 0 1.66689 0L10.421 0L13.9336 3.51253V14.4C13.9336 14.8243 13.765 15.2313 13.4649 15.5314C13.1649 15.8314 12.7579 16 12.3336 16H1.66689C1.24255 16 0.835582 15.8314 0.535524 15.5314C0.235466 15.2313 0.0668945 14.8243 0.0668945 14.4V1.6ZM1.13356 6.4H4.33356V7.46667H2.20023V10.6667H4.33356V11.7333H1.13356V6.4ZM8.60023 6.4H5.40023V9.6H7.53356V10.6667H5.40023V11.7333H8.60023V8.53333H6.4669V7.46667H8.60023V6.4ZM10.7336 6.4H9.66689V10.3541L11.2669 11.9541L12.8669 10.3541V6.4H11.8002V9.91253L11.2669 10.4459L10.7336 9.91253V6.4Z" fill="#1D1D1E"/>
</svg>
