<svg width="16" height="16" viewBox="0 0 16 16" fill="none" xmlns="http://www.w3.org/2000/svg">
<path d="M14.1733 8.54526H11.6287V7.27295H14.1733V8.54526ZM14.1733 9.27226H11.6287V10.5446H14.1733V9.27226ZM14.1733 3.27432H11.6287V4.5466H14.1733V3.27435V3.27432ZM14.1733 5.27364H11.6287V6.54592H14.1733V5.27364ZM14.1733 11.2716H11.6287V12.5439H14.1733V11.2715V11.2716ZM15.9309 13.7798C15.8582 14.1579 15.4038 14.1669 15.1003 14.1797H9.44769V15.8155H8.31897L0 14.3614V1.64035L8.36806 0.184479H9.44769V1.63307H14.9058C15.213 1.64579 15.5511 1.62398 15.8182 1.80754C16.0054 2.07654 15.9873 2.41826 16 2.72723L15.9927 12.1894C15.9837 12.7184 16.0418 13.2582 15.9309 13.7798ZM6.66497 10.9281C6.16334 9.91026 5.65263 8.89967 5.15278 7.88182C5.64716 6.89126 6.13428 5.89707 6.61956 4.90285C6.20697 4.92285 5.79437 4.94829 5.38363 4.97739C5.07644 5.72439 4.71838 6.45142 4.47847 7.22389C4.25491 6.49504 3.95866 5.79345 3.68784 5.08279C3.28797 5.1046 2.88809 5.12823 2.48825 5.15185C2.90991 6.08248 3.35888 7.00029 3.76781 7.93635C3.28616 8.84514 2.83541 9.76667 2.36828 10.6809C2.76631 10.6972 3.16438 10.7136 3.56241 10.719C3.84597 9.99567 4.19856 9.29954 4.44575 8.5616C4.6675 9.35407 5.04372 10.0865 5.35272 10.8444C5.79075 10.8754 6.22697 10.9026 6.665 10.9281H6.66497ZM15.1331 2.49629H9.44769V3.27432H10.9017V4.5466H9.44769V5.27364H10.9017V6.54592H9.44769V7.27295H10.9017V8.54526H9.44769V9.27226H10.9017V10.5446H9.44769V11.2716H10.9017V12.5439H9.44769V13.3844H15.1331V2.49629Z" fill="#1D1D1E"/>
</svg>
