<svg width="11" height="7" viewBox="0 0 11 7" fill="none" xmlns="http://www.w3.org/2000/svg">
<path d="M5.05275 4.73541L8.76525 1.02291C8.83443 0.951279 8.91719 0.894142 9.00869 0.854835C9.1002 0.815529 9.19861 0.794839 9.2982 0.793974C9.39778 0.793108 9.49654 0.812085 9.58871 0.849795C9.68089 0.887506 9.76462 0.943196 9.83504 1.01362C9.90546 1.08403 9.96115 1.16777 9.99886 1.25995C10.0366 1.35212 10.0556 1.45088 10.0547 1.55046C10.0538 1.65005 10.0331 1.74846 9.99382 1.83996C9.95452 1.93147 9.89738 2.01423 9.82575 2.08341L5.583 6.32616C5.44235 6.46676 5.25162 6.54575 5.05275 6.54575C4.85387 6.54575 4.66314 6.46676 4.5225 6.32616L0.279747 2.08341C0.208115 2.01423 0.150978 1.93147 0.111671 1.83996C0.0723646 1.74846 0.0516749 1.65005 0.0508096 1.55046C0.0499442 1.45088 0.0689205 1.35212 0.106631 1.25995C0.144342 1.16777 0.200032 1.08403 0.270451 1.01362C0.340871 0.943196 0.42461 0.887506 0.516782 0.849795C0.608954 0.812085 0.707714 0.793108 0.807298 0.793974C0.906883 0.794839 1.0053 0.815529 1.0968 0.854835C1.1883 0.894142 1.27106 0.951279 1.34025 1.02291L5.05275 4.73541Z" fill="#858585"/>
</svg>
