<svg width="14" height="8" viewBox="0 0 14 8" fill="none" xmlns="http://www.w3.org/2000/svg">
<path d="M6.99967 8.00005C3.63834 8.00472 0.333008 6.20939 0.333008 4.00005C0.333008 1.79072 3.65567 -0.0112802 6.99967 5.3168e-05C10.3437 0.0113865 13.6663 1.79072 13.6663 4.00005C13.6663 6.20939 10.361 7.99539 6.99967 8.00005ZM6.99967 6.66672C7.70692 6.66672 8.3852 6.38577 8.88529 5.88567C9.38539 5.38558 9.66634 4.7073 9.66634 4.00005C9.66634 3.29281 9.38539 2.61453 8.88529 2.11444C8.3852 1.61434 7.70692 1.33339 6.99967 1.33339C6.29243 1.33339 5.61415 1.61434 5.11406 2.11444C4.61396 2.61453 4.33301 3.29281 4.33301 4.00005C4.33301 4.7073 4.61396 5.38558 5.11406 5.88567C5.61415 6.38577 6.29243 6.66672 6.99967 6.66672ZM6.99967 5.33339C6.64605 5.33339 6.30691 5.19291 6.05687 4.94286C5.80682 4.69281 5.66634 4.35368 5.66634 4.00005C5.66634 3.64643 5.80682 3.30729 6.05687 3.05724C6.30691 2.8072 6.64605 2.66672 6.99967 2.66672C7.3533 2.66672 7.69243 2.8072 7.94248 3.05724C8.19253 3.30729 8.33301 3.64643 8.33301 4.00005C8.33301 4.35368 8.19253 4.69281 7.94248 4.94286C7.69243 5.19291 7.3533 5.33339 6.99967 5.33339Z" fill="#858585"/>
</svg>
