<svg width="128" height="128" viewBox="0 0 128 128" fill="none" xmlns="http://www.w3.org/2000/svg">
<path d="M96.3996 8.28845L118.656 31.4885V119.712H35.5156V120H118.94V31.7805L96.3996 8.28845Z" fill="#858585"/>
<path opacity="0.5" d="M96.1249 8H35.2329V119.712H118.657V31.492L96.1209 8" fill="#EAEAEA"/>
<path d="M34.621 14H9.06104V41.308H89.461V14H34.621Z" fill="#858585"/>
<path d="M89.8866 40.8438H9.57861V13.5158H89.8866V40.8438Z" fill="#FC2900"/>
<path d="M36.2065 18.1364H30.9785V37.3364H35.0905V30.8604L35.9985 30.9124C36.8808 30.8972 37.7548 30.7392 38.5865 30.4444C39.3157 30.1936 39.9866 29.7976 40.5585 29.2804C41.1405 28.7877 41.5994 28.1658 41.8985 27.4644C42.2997 26.2984 42.443 25.0592 42.3185 23.8324C42.2935 22.956 42.1399 22.0881 41.8625 21.2564C41.61 20.656 41.2353 20.1148 40.7622 19.6672C40.2891 19.2196 39.7279 18.8753 39.1145 18.6564C38.5842 18.4644 38.0362 18.3251 37.4785 18.2404C37.0562 18.1753 36.6298 18.1405 36.2025 18.1364H36.2065ZM35.4465 27.3124H35.0905V21.3924H35.8625C36.2032 21.3678 36.5451 21.4201 36.8629 21.5455C37.1807 21.6708 37.4663 21.8659 37.6985 22.1164C38.1798 22.7605 38.4369 23.5444 38.4305 24.3484C38.4305 25.3324 38.4305 26.2244 37.5425 26.8524C36.9028 27.2043 36.1746 27.3627 35.4465 27.3084" fill="#1D1D1E"/>
<path d="M50.1333 18.0836C49.6893 18.0836 49.2573 18.1156 48.9533 18.1276L48.0013 18.1516H44.8813V37.3516H48.5533C49.9566 37.3901 51.3538 37.1522 52.6653 36.6516C53.721 36.2329 54.6558 35.5579 55.3853 34.6876C56.0948 33.8094 56.604 32.7869 56.8773 31.6916C57.1916 30.4511 57.3449 29.1752 57.3333 27.8956C57.4109 26.3842 57.294 24.8691 56.9853 23.3876C56.6925 22.297 56.144 21.2919 55.3853 20.4556C54.7901 19.7802 54.0615 19.2355 53.2453 18.8556C52.5445 18.5312 51.8072 18.2922 51.0493 18.1436C50.748 18.0938 50.4428 18.071 50.1373 18.0756L50.1333 18.0836ZM49.4093 33.8236H49.0093V21.5676H49.0613C49.886 21.4727 50.7203 21.6215 51.4613 21.9956C52.004 22.4289 52.4462 22.9748 52.7573 23.5956C53.0932 24.2489 53.2868 24.966 53.3253 25.6996C53.3613 26.5796 53.3253 27.2996 53.3253 27.8956C53.3416 28.5821 53.2975 29.2688 53.1933 29.9476C53.0701 30.6445 52.8421 31.3188 52.5173 31.9476C52.1497 32.5322 51.653 33.0248 51.0653 33.3876C50.5718 33.7068 49.9874 33.8557 49.4013 33.8116" fill="#1D1D1E"/>
<path d="M69.72 18.1522H60V37.3522H64.112V29.7362H69.312V26.1682H64.112V21.7202H69.712V18.1522" fill="#1D1D1E"/>
<path d="M87.1233 81.019C87.1233 81.019 99.8753 78.707 99.8753 83.063C99.8753 87.419 91.9753 85.647 87.1233 81.019ZM77.6953 81.351C75.6692 81.7987 73.6948 82.4542 71.8033 83.307L73.4033 79.707C75.0033 76.107 76.6633 71.199 76.6633 71.199C78.5725 74.4123 80.7939 77.4296 83.2953 80.207C81.4089 80.4883 79.5394 80.8729 77.6953 81.359V81.351ZM72.6473 55.351C72.6473 51.555 73.8753 50.519 74.8313 50.519C75.7873 50.519 76.8633 50.979 76.8993 54.275C76.5878 57.5892 75.8938 60.8563 74.8313 64.011C73.3757 61.3624 72.6225 58.3852 72.6433 55.363L72.6473 55.351ZM54.0513 97.415C50.1393 95.075 62.2553 87.871 64.4513 87.639C64.4393 87.643 58.1473 99.863 54.0513 97.415ZM103.599 83.579C103.559 83.179 103.199 78.751 95.3193 78.939C92.0348 78.8861 88.7518 79.1176 85.5073 79.631C82.3643 76.4646 79.6578 72.8931 77.4593 69.011C78.8443 65.0087 79.6826 60.8377 79.9513 56.611C79.8353 51.811 78.6873 49.059 75.0073 49.099C71.3273 49.139 70.7913 52.359 71.2753 57.151C71.7494 60.3712 72.6437 63.5153 73.9353 66.503C73.9353 66.503 72.2353 71.795 69.9873 77.059C67.7393 82.323 66.2033 85.083 66.2033 85.083C62.2942 86.3556 58.6142 88.2462 55.3033 90.683C52.0073 93.751 50.6673 96.107 52.4033 98.463C53.8993 100.495 59.1353 100.955 63.8153 94.823C66.3019 91.6559 68.5736 88.3257 70.6153 84.855C70.6153 84.855 77.7513 82.899 79.9713 82.363C82.1913 81.827 84.8753 81.403 84.8753 81.403C84.8753 81.403 91.3913 87.959 97.6753 87.727C103.959 87.495 103.655 83.971 103.615 83.587" fill="#FC2900"/>
<path d="M95.814 8.30841V31.8004H118.346L95.814 8.30841Z" fill="#858585"/>
<path d="M96.1245 8V31.492H118.657L96.1245 8Z" fill="#EAEAEA"/>
<path d="M35.8999 17.828H30.6719V37.028H34.7999V30.556L35.7119 30.608C36.5942 30.5928 37.4682 30.4348 38.2999 30.14C39.029 29.8891 39.6999 29.4931 40.2719 28.976C40.8495 28.482 41.3042 27.8602 41.5999 27.16C42.0011 25.994 42.1444 24.7548 42.0199 23.528C41.9949 22.6516 41.8413 21.7837 41.5639 20.952C41.3114 20.3516 40.9366 19.8104 40.4635 19.3628C39.9904 18.9151 39.4293 18.5709 38.8159 18.352C38.2831 18.1581 37.7324 18.0174 37.1719 17.932C36.7496 17.8668 36.3231 17.8321 35.8959 17.828H35.8999ZM35.1399 27.004H34.7839V21.084H35.5599C35.9006 21.0594 36.2425 21.1117 36.5603 21.2371C36.8781 21.3624 37.1636 21.5575 37.3959 21.808C37.8772 22.4521 38.1343 23.236 38.1279 24.04C38.1279 25.024 38.1279 25.916 37.2399 26.544C36.6001 26.8959 35.872 27.0543 35.1439 27" fill="white"/>
<path d="M49.8255 17.7752C49.3815 17.7752 48.9495 17.8072 48.6455 17.8192L47.7054 17.8432H44.5854V37.0432H48.2575C49.6608 37.0816 51.0579 36.8438 52.3695 36.3432C53.4251 35.9245 54.3599 35.2495 55.0895 34.3792C55.7989 33.501 56.3081 32.4785 56.5815 31.3832C56.8957 30.1426 57.049 28.8668 57.0375 27.5872C57.115 26.0758 56.9981 24.5607 56.6895 23.0792C56.3966 21.9886 55.8481 20.9835 55.0895 20.1472C54.4942 19.4718 53.7656 18.927 52.9495 18.5472C52.2486 18.2228 51.5113 17.9838 50.7535 17.8352C50.4521 17.7854 50.1469 17.7626 49.8415 17.7672L49.8255 17.7752ZM49.1135 33.5152H48.7135V21.2592H48.7655C49.5901 21.1643 50.4245 21.3131 51.1655 21.6872C51.7081 22.1205 52.1503 22.6664 52.4615 23.2872C52.7973 23.9405 52.9909 24.6576 53.0295 25.3912C53.0655 26.2712 53.0295 26.9912 53.0295 27.5872C53.0457 28.2737 53.0016 28.9604 52.8975 29.6392C52.7742 30.3361 52.5463 31.0104 52.2215 31.6392C51.8538 32.2238 51.3571 32.7164 50.7695 33.0792C50.2759 33.3984 49.6915 33.5473 49.1055 33.5032" fill="white"/>
<path d="M69.4138 17.8438H59.6938V37.0438H63.8058V29.4278H69.0058V25.8598H63.8058V21.4118H69.4058V17.8438" fill="white"/>
</svg>
