<svg width="16" height="20" viewBox="0 0 16 20" fill="none" xmlns="http://www.w3.org/2000/svg">
<path d="M13.2083 0H2.79167C1.5275 0 0.5 1.0275 0.5 2.29167V17.7083C0.5 18.9725 1.5275 20 2.79167 20H13.2083C14.4725 20 15.5 18.9725 15.5 17.7083V2.29167C15.5 1.0275 14.4725 0 13.2083 0ZM3.83333 4.16667H8.20833C8.66833 4.16667 9.04167 4.54 9.04167 5C9.04167 5.46 8.66833 5.83333 8.20833 5.83333H3.83333C3.37333 5.83333 3 5.46 3 5C3 4.54 3.37333 4.16667 3.83333 4.16667ZM12.1667 15.8333H3.83333C3.37333 15.8333 3 15.46 3 15C3 14.54 3.37333 14.1667 3.83333 14.1667H12.1667C12.6267 14.1667 13 14.54 13 15C13 15.46 12.6267 15.8333 12.1667 15.8333ZM12.1667 12.5H3.83333C3.37333 12.5 3 12.1267 3 11.6667C3 11.2067 3.37333 10.8333 3.83333 10.8333H12.1667C12.6267 10.8333 13 11.2067 13 11.6667C13 12.1267 12.6267 12.5 12.1667 12.5ZM12.1667 9.16667H3.83333C3.37333 9.16667 3 8.79333 3 8.33333C3 7.87333 3.37333 7.5 3.83333 7.5H12.1667C12.6267 7.5 13 7.87333 13 8.33333C13 8.79333 12.6267 9.16667 12.1667 9.16667Z" fill="#858585"/>
</svg>
