<svg width="24" height="24" viewBox="0 0 24 24" fill="none" xmlns="http://www.w3.org/2000/svg">
<path d="M15 21.065V16.065C15 15.2693 14.6839 14.5063 14.1213 13.9437C13.5587 13.3811 12.7956 13.065 12 13.065C11.2044 13.065 10.4413 13.3811 9.87868 13.9437C9.31607 14.5063 9 15.2693 9 16.065V21.065H4C3.46957 21.065 2.96086 20.8543 2.58579 20.4792C2.21071 20.1041 2 19.5954 2 19.065V8.19699C2 7.85162 2.08943 7.51213 2.25959 7.21159C2.42976 6.91104 2.67485 6.65969 2.971 6.48199L10.971 1.68199C11.2818 1.49549 11.6375 1.39697 12 1.39697C12.3625 1.39697 12.7182 1.49549 13.029 1.68199L21.029 6.48199C21.3252 6.65969 21.5702 6.91104 21.7404 7.21159C21.9106 7.51213 22 7.85162 22 8.19699V19.065C22 19.5954 21.7893 20.1041 21.4142 20.4792C21.0391 20.8543 20.5304 21.065 20 21.065H15Z" fill="#858585"/>
</svg>

