<svg width="18" height="22" viewBox="0 0 18 22" fill="none" xmlns="http://www.w3.org/2000/svg">
<path fill-rule="evenodd" clip-rule="evenodd" d="M2.6362 2.66905C4.32401 0.960085 6.61317 0 9.0001 0C11.387 0 13.6762 0.960085 15.364 2.66905C17.0518 4.37801 18 6.69586 18 9.1127C18 11.5295 17.0518 13.8474 15.364 15.5563L9.0001 22L2.6362 15.5563C1.80043 14.7102 1.13745 13.7056 0.68513 12.6C0.232808 11.4944 0 10.3094 0 9.1127C0 7.91598 0.232808 6.73099 0.68513 5.62538C1.13745 4.51978 1.80043 3.51521 2.6362 2.66905ZM9.0001 11.7162C9.68204 11.7162 10.3361 11.4419 10.8183 10.9536C11.3005 10.4654 11.5714 9.80319 11.5714 9.1127C11.5714 8.42221 11.3005 7.76 10.8183 7.27175C10.3361 6.7835 9.68204 6.5092 9.0001 6.5092C8.31815 6.5092 7.66414 6.7835 7.18193 7.27175C6.69973 7.76 6.42882 8.42221 6.42882 9.1127C6.42882 9.80319 6.69973 10.4654 7.18193 10.9536C7.66414 11.4419 8.31815 11.7162 9.0001 11.7162Z" fill="#CBCBCB"/>
</svg>
