<svg width="13" height="9" viewBox="0 0 13 9" fill="none" xmlns="http://www.w3.org/2000/svg">
<path d="M5.6159 8.32394C5.49589 8.32419 5.377 8.30073 5.26608 8.25492C5.15515 8.2091 5.05436 8.14183 4.9695 8.05697L1.0911 4.17766C1.00372 4.09338 0.933997 3.99254 0.886003 3.88103C0.838009 3.76952 0.812704 3.64956 0.811564 3.52817C0.810424 3.40677 0.833472 3.28636 0.879364 3.17397C0.925255 3.06158 0.993071 2.95945 1.07885 2.87354C1.16464 2.78764 1.26667 2.71968 1.379 2.67363C1.49133 2.62758 1.6117 2.60436 1.7331 2.60533C1.8545 2.6063 1.97449 2.63143 2.08607 2.67927C2.19765 2.7271 2.29858 2.79668 2.38299 2.88394L5.61499 6.11594L11.4344 0.298344C11.6059 0.126787 11.8384 0.0303592 12.0809 0.0302735C12.3235 0.0301878 12.5561 0.126451 12.7277 0.297887C12.8992 0.469323 12.9957 0.701888 12.9957 0.944421C12.9958 1.18695 12.8996 1.41959 12.7281 1.59114L6.2623 8.05697C6.17744 8.14183 6.07665 8.2091 5.96572 8.25492C5.8548 8.30073 5.73591 8.32419 5.6159 8.32394Z" fill="#858585"/>
</svg>
