<svg width="24" height="24" viewBox="0 0 24 24" fill="none" xmlns="http://www.w3.org/2000/svg">
<path d="M14.5003 7.41699C14.0403 7.41699 13.667 7.04366 13.667 6.58366V5.33366H10.3337V6.58366C10.3337 7.04366 9.96032 7.41699 9.50032 7.41699C9.04032 7.41699 8.66699 7.04366 8.66699 6.58366V5.33366C8.66699 4.41449 9.41449 3.66699 10.3337 3.66699H13.667C14.5861 3.66699 15.3336 4.41449 15.3336 5.33366V6.58366C15.3336 7.04366 14.9603 7.41699 14.5003 7.41699Z" fill="#858585"/>
<path d="M12.5917 14.8169C12.4417 14.8753 12.225 14.9169 12 14.9169C11.775 14.9169 11.5583 14.8753 11.3583 14.8003L2 11.6836V18.0419C2 19.3086 3.025 20.3336 4.29167 20.3336H19.7083C20.975 20.3336 22 19.3086 22 18.0419V11.6836L12.5917 14.8169Z" fill="#858585"/>
<path d="M22 8.45866V10.367L12.2 13.6337C12.1333 13.6587 12.0667 13.667 12 13.667C11.9333 13.667 11.8667 13.6587 11.8 13.6337L2 10.367V8.45866C2 7.19199 3.025 6.16699 4.29167 6.16699H19.7083C20.975 6.16699 22 7.19199 22 8.45866Z" fill="#858585"/>
</svg>
