<svg width="24" height="24" viewBox="0 0 24 24" fill="none" xmlns="http://www.w3.org/2000/svg">
<path fill-rule="evenodd" clip-rule="evenodd" d="M16.2426 3.75736C17.3679 4.88258 18 6.4087 18 8C18 15 21 17 21 17H3C3 17 6 15 6 8C6 6.4087 6.63214 4.88258 7.75736 3.75736C8.88258 2.63214 10.4087 2 12 2C13.5913 2 15.1174 2.63214 16.2426 3.75736ZM11.135 20.4982C10.8579 20.0205 10.246 19.8579 9.76825 20.135C9.29052 20.4121 9.1279 21.024 9.40502 21.5018C9.66873 21.9564 10.0473 22.3337 10.5027 22.5961C10.9581 22.8584 11.4745 22.9965 12 22.9965C12.5256 22.9965 13.0419 22.8584 13.4974 22.5961C13.9528 22.3337 14.3313 21.9564 14.595 21.5018C14.8721 21.024 14.7095 20.4121 14.2318 20.135C13.7541 19.8579 13.1421 20.0205 12.865 20.4982C12.7771 20.6498 12.6509 20.7756 12.4991 20.863C12.3473 20.9504 12.1752 20.9965 12 20.9965C11.8248 20.9965 11.6527 20.9504 11.5009 20.863C11.3491 20.7756 11.2229 20.6498 11.135 20.4982Z" fill="#858585"/>
</svg>

