<svg width="24" height="24" viewBox="0 0 24 24" fill="none" xmlns="http://www.w3.org/2000/svg">
<path d="M23 11C23 11.5522 22.5523 12 22 12H16C15.4477 12 15 11.5522 15 11V7C15 6.44769 15.4477 6 16 6V5C16 3.34314 17.3431 2 19 2C20.6569 2 22 3.34314 22 5V6C22.5523 6 23 6.44769 23 7V11ZM19 8C18.4477 8 18 8.44769 18 9C18 9.55225 18.4477 10 19 10C19.5523 10 20 9.55225 20 9C20 8.44769 19.5523 8 19 8ZM19 3C17.8972 3 17 3.89722 17 5V6H21V5C21 3.89722 20.1028 3 19 3Z" fill="#858585"/>
<path d="M7 13C9.20914 13 11 11.2091 11 9C11 6.79086 9.20914 5 7 5C4.79086 5 3 6.79086 3 9C3 11.2091 4.79086 13 7 13Z" fill="#858585"/>
<path d="M8.06942 14.0394C6.13299 13.9176 4.44984 14.0408 2.99805 14.9446C0.56857 16.4122 1.03611 18.3882 1.03611 20.8056C1.03611 21.4452 1.72611 21.9753 2.58706 21.9753C11.9354 21.9753 12.3074 22.2027 12.8618 21.2769C13.0436 20.9638 12.9938 21.0633 12.9938 18.0682C12.9938 15.6892 10.2624 14.0394 8.06942 14.0394Z" fill="#858585"/>
</svg>
