<svg width="24" height="24" viewBox="0 0 24 24" fill="none" xmlns="http://www.w3.org/2000/svg">
<path d="M12 12C14.2091 12 16 10.2091 16 8C16 5.79086 14.2091 4 12 4C9.79086 4 8 5.79086 8 8C8 10.2091 9.79086 12 12 12Z" fill="#858585"/>
<path d="M13.0694 13.0394C11.133 12.9176 9.44984 13.0408 7.99805 13.9446C5.56857 15.4122 6.03611 17.3882 6.03611 19.8056C6.03611 20.4452 6.72611 20.9753 7.58706 20.9753C16.9354 20.9753 17.3074 21.2027 17.8618 20.2769C18.0436 19.9638 17.9938 20.0633 17.9938 17.0682C17.9938 14.6892 15.2624 13.0394 13.0694 13.0394Z" fill="#858585"/>
</svg>

