<svg width="19" height="21" viewBox="0 0 19 21" fill="none" xmlns="http://www.w3.org/2000/svg">
<path d="M12.0909 18.4035L7.86595 15.9642L6.99992 15.4642L6.1339 14.9642L1.90895 12.5249C2.78456 11.6124 4.06789 11.0917 5.51134 11.0693L6.07832 11.0605L6.36185 10.5694L9.90185 4.43792L10.4018 3.57189L9.53582 3.07189L9.10281 2.82189C8.98797 2.75559 8.90417 2.64638 8.86984 2.51829C8.83552 2.3902 8.85349 2.25372 8.91979 2.13888C8.9861 2.02404 9.09531 1.94024 9.2234 1.90592C9.35149 1.8716 9.48797 1.88957 9.60281 1.95587L17.397 6.45587C17.5119 6.52217 17.5957 6.63138 17.63 6.75947C17.6643 6.88756 17.6464 7.02404 17.58 7.13888C17.5137 7.25372 17.4045 7.33752 17.2764 7.37184C17.1484 7.40617 17.0119 7.3882 16.897 7.32189L16.464 7.07189L15.598 6.57189L15.098 7.43792L11.558 13.5694L11.2745 14.0605L11.5503 14.5559C12.2527 15.8171 12.4434 17.1889 12.0909 18.4035Z" stroke="#1D1D1E" stroke-width="2"/>
</svg>
