<svg width="19" height="21" viewBox="0 0 19 21" fill="none" xmlns="http://www.w3.org/2000/svg">
<path fill-rule="evenodd" clip-rule="evenodd" d="M9.03582 3.93771L8.60281 3.68771C8.25828 3.4888 8.00688 3.16117 7.90392 2.7769C7.80095 2.39264 7.85486 1.9832 8.05377 1.63868C8.25268 1.29415 8.58031 1.04275 8.96458 0.939787C9.34885 0.836822 9.75828 0.890725 10.1028 1.08964L17.897 5.58964C18.2416 5.78855 18.493 6.11618 18.5959 6.50045C18.6989 6.88472 18.645 7.29415 18.4461 7.63868C18.2472 7.9832 17.9195 8.2346 17.5353 8.33756C17.151 8.44053 16.7416 8.38663 16.397 8.18771L15.964 7.93771L12.424 14.0692C13.0977 15.2789 13.3854 16.6204 13.2163 17.8983C13.1275 18.5691 12.9129 19.2225 12.5621 19.83L7.36595 16.83L5.36595 20.2941C5.09095 20.7704 4.47624 20.9351 3.99992 20.6601C3.52361 20.3851 3.3589 19.7704 3.6339 19.2941L5.6339 15.83L0.437744 12.83C0.78852 12.2225 1.24699 11.7099 1.78357 11.2976C2.80574 10.5122 4.11134 10.0907 5.49582 10.0692L9.03582 3.93771Z" fill="#000"/>
</svg>
