<svg width="14" height="14" viewBox="0 0 14 14" fill="none" xmlns="http://www.w3.org/2000/svg">
<path d="M6.1406 12.7761C6.1406 13.2481 6.52321 13.6307 6.99519 13.6307C7.46716 13.6307 7.84978 13.2481 7.84978 12.7761L7.84978 7.85459L12.7713 7.85459C13.2433 7.85459 13.6259 7.47198 13.6259 7C13.6259 6.52802 13.2433 6.14541 12.7713 6.14541H7.84978L7.84978 1.2239C7.84978 0.751919 7.46716 0.369307 6.99519 0.369307C6.52321 0.369308 6.1406 0.75192 6.1406 1.2239L6.1406 6.14541L1.21908 6.14541C0.747105 6.14541 0.364494 6.52802 0.364494 7C0.364494 7.47198 0.747107 7.85459 1.21908 7.85459L6.1406 7.85459L6.1406 12.7761Z" fill="#858585"/>
</svg>
