<svg width="13" height="13" viewBox="0 0 13 13" fill="none" xmlns="http://www.w3.org/2000/svg">
<path d="M5.99968 9.99968C6.52497 9.99968 7.04512 9.89622 7.53042 9.6952C8.01572 9.49418 8.45668 9.19955 8.82811 8.82811C9.19955 8.45668 9.49418 8.01572 9.6952 7.53042C9.89622 7.04512 9.99968 6.52497 9.99968 5.99968C9.99968 5.4744 9.89622 4.95425 9.6952 4.46895C9.49418 3.98365 9.19955 3.54269 8.82811 3.17126C8.45668 2.79982 8.01572 2.50519 7.53042 2.30417C7.04512 2.10315 6.52497 1.99968 5.99968 1.99968C4.93882 1.99968 3.9214 2.42111 3.17126 3.17126C2.42111 3.9214 1.99968 4.93882 1.99968 5.99968C1.99968 7.06055 2.42111 8.07797 3.17126 8.82811C3.9214 9.57826 4.93882 9.99968 5.99968 9.99968ZM10.213 9.27035L12.5997 11.657C12.6633 11.7186 12.714 11.7922 12.7489 11.8735C12.7838 11.9549 12.8021 12.0424 12.8028 12.1309C12.8035 12.2194 12.7866 12.3072 12.753 12.3891C12.7195 12.471 12.6699 12.5454 12.6073 12.6079C12.5446 12.6705 12.4702 12.7199 12.3882 12.7534C12.3063 12.7869 12.2185 12.8037 12.1299 12.8028C12.0414 12.802 11.954 12.7836 11.8726 12.7486C11.7913 12.7136 11.7178 12.6627 11.6564 12.599L9.26968 10.2124C8.19799 11.0443 6.84955 11.4365 5.49885 11.3091C4.14816 11.1818 2.89675 10.5446 1.99938 9.52706C1.10202 8.50956 0.626141 7.18831 0.668635 5.8323C0.711129 4.47629 1.2688 3.18743 2.22812 2.22812C3.18743 1.2688 4.47629 0.711129 5.8323 0.668635C7.18831 0.626141 8.50956 1.10202 9.52706 1.99938C10.5446 2.89675 11.1818 4.14816 11.3091 5.49885C11.4365 6.84955 11.0443 8.19799 10.2124 9.26968L10.213 9.27035Z" fill="#858585"/>
</svg>
