<svg width="24" height="24" viewBox="0 0 24 24" fill="none" xmlns="http://www.w3.org/2000/svg">
<path fill-rule="evenodd" clip-rule="evenodd" d="M12 24C18.6274 24 24 18.6274 24 12C24 5.37258 18.6274 0 12 0C5.37258 0 0 5.37258 0 12C0 18.6274 5.37258 24 12 24ZM10.4198 15.8787C10.5209 15.9204 10.6292 15.9418 10.7386 15.9416C10.848 15.9418 10.9564 15.9204 11.0575 15.8787C11.1586 15.8369 11.2504 15.7756 11.3278 15.6983L17.2211 9.80493C17.3774 9.64856 17.4651 9.43653 17.465 9.21547C17.4649 8.99441 17.3771 8.78244 17.2207 8.62618C17.0643 8.46992 16.8523 8.38218 16.6312 8.38226C16.4102 8.38234 16.1982 8.47023 16.0419 8.6266L10.7378 13.9291L7.79194 10.9833C7.71501 10.9037 7.62301 10.8403 7.52131 10.7967C7.41961 10.7531 7.31025 10.7302 7.1996 10.7293C7.08895 10.7284 6.97923 10.7496 6.87685 10.7916C6.77447 10.8335 6.68147 10.8955 6.60328 10.9738C6.52509 11.0521 6.46328 11.1452 6.42145 11.2476C6.37962 11.3501 6.35862 11.4598 6.35966 11.5704C6.36069 11.6811 6.38376 11.7904 6.4275 11.8921C6.47125 11.9937 6.5348 12.0856 6.61444 12.1624L10.1494 15.6983C10.2268 15.7756 10.3187 15.8369 10.4198 15.8787Z" fill="#2B8DFF"/>
</svg>
