<svg width="16" height="16" viewBox="0 0 16 16" fill="none" xmlns="http://www.w3.org/2000/svg">
<path d="M8.00033 9.33366C8.73671 9.33366 9.33366 8.73671 9.33366 8.00033C9.33366 7.26395 8.73671 6.66699 8.00033 6.66699C7.26395 6.66699 6.66699 7.26395 6.66699 8.00033C6.66699 8.73671 7.26395 9.33366 8.00033 9.33366Z" stroke="#2B8DFF" stroke-width="2" stroke-linecap="round" stroke-linejoin="round"/>
<path d="M12.4845 9.81786C12.4038 10.0007 12.3798 10.2034 12.4154 10.4C12.4511 10.5966 12.5448 10.7781 12.6845 10.9209L12.7209 10.9573C12.8336 11.0698 12.923 11.2035 12.984 11.3507C13.045 11.4978 13.0764 11.6555 13.0764 11.8148C13.0764 11.9741 13.045 12.1318 12.984 12.279C12.923 12.4261 12.8336 12.5598 12.7209 12.6724C12.6083 12.7851 12.4746 12.8745 12.3275 12.9355C12.1803 12.9965 12.0226 13.0279 11.8633 13.0279C11.704 13.0279 11.5463 12.9965 11.3991 12.9355C11.252 12.8745 11.1183 12.7851 11.0057 12.6724L10.9694 12.636C10.8265 12.4963 10.6451 12.4026 10.4485 12.3669C10.2519 12.3313 10.0491 12.3554 9.86634 12.436C9.68709 12.5129 9.53421 12.6404 9.42653 12.803C9.31885 12.9656 9.26106 13.1562 9.26028 13.3512V13.4542C9.26028 13.7757 9.13258 14.084 8.90526 14.3113C8.67794 14.5386 8.36963 14.6663 8.04816 14.6663C7.72668 14.6663 7.41838 14.5386 7.19106 14.3113C6.96374 14.084 6.83604 13.7757 6.83604 13.4542V13.3997C6.83135 13.1991 6.76641 13.0045 6.64968 12.8413C6.53295 12.6781 6.36982 12.5538 6.18149 12.4845C5.9987 12.4038 5.79592 12.3798 5.59932 12.4154C5.40271 12.4511 5.2213 12.5448 5.07846 12.6845L5.0421 12.7209C4.92953 12.8336 4.79584 12.923 4.64869 12.984C4.50154 13.045 4.34381 13.0764 4.18452 13.0764C4.02523 13.0764 3.8675 13.045 3.72035 12.984C3.5732 12.923 3.43952 12.8336 3.32695 12.7209C3.21425 12.6083 3.12484 12.4746 3.06384 12.3275C3.00285 12.1803 2.97145 12.0226 2.97145 11.8633C2.97145 11.704 3.00285 11.5463 3.06384 11.3991C3.12484 11.252 3.21425 11.1183 3.32695 11.0057L3.36331 10.9694C3.50303 10.8265 3.59676 10.6451 3.6324 10.4485C3.66805 10.2519 3.64399 10.0491 3.56331 9.86634C3.48648 9.68709 3.35892 9.53421 3.19632 9.42653C3.03372 9.31885 2.84318 9.26106 2.64816 9.26028H2.54513C2.22365 9.26028 1.91535 9.13258 1.68803 8.90526C1.46071 8.67794 1.33301 8.36963 1.33301 8.04816C1.33301 7.72668 1.46071 7.41838 1.68803 7.19106C1.91535 6.96374 2.22365 6.83604 2.54513 6.83604H2.59967C2.80028 6.83135 2.99483 6.76641 3.15804 6.64968C3.32125 6.53295 3.44556 6.36982 3.51483 6.18149C3.5955 5.9987 3.61957 5.79592 3.58392 5.59932C3.54827 5.40271 3.45455 5.2213 3.31483 5.07846L3.27846 5.0421C3.16576 4.92953 3.07636 4.79584 3.01536 4.64869C2.95436 4.50154 2.92296 4.34381 2.92296 4.18452C2.92296 4.02523 2.95436 3.8675 3.01536 3.72035C3.07636 3.5732 3.16576 3.43952 3.27846 3.32695C3.39104 3.21425 3.52472 3.12484 3.67187 3.06384C3.81902 3.00285 3.97675 2.97145 4.13604 2.97145C4.29533 2.97145 4.45306 3.00285 4.60021 3.06384C4.74736 3.12484 4.88104 3.21425 4.99361 3.32695L5.02998 3.36331C5.17281 3.50303 5.35423 3.59676 5.55083 3.6324C5.74744 3.66805 5.95021 3.64399 6.13301 3.56331H6.18149C6.36075 3.48648 6.51362 3.35892 6.62131 3.19632C6.72899 3.03372 6.78678 2.84318 6.78755 2.64816V2.54513C6.78755 2.22365 6.91526 1.91535 7.14258 1.68803C7.36989 1.46071 7.6782 1.33301 7.99967 1.33301C8.32115 1.33301 8.62946 1.46071 8.85677 1.68803C9.08409 1.91535 9.2118 2.22365 9.2118 2.54513V2.59967C9.21257 2.7947 9.27036 2.98524 9.37804 3.14784C9.48572 3.31044 9.6386 3.438 9.81786 3.51483C10.0007 3.5955 10.2034 3.61957 10.4 3.58392C10.5966 3.54827 10.7781 3.45455 10.9209 3.31483L10.9573 3.27846C11.0698 3.16576 11.2035 3.07636 11.3507 3.01536C11.4978 2.95436 11.6555 2.92296 11.8148 2.92296C11.9741 2.92296 12.1318 2.95436 12.279 3.01536C12.4261 3.07636 12.5598 3.16576 12.6724 3.27846C12.7851 3.39104 12.8745 3.52472 12.9355 3.67187C12.9965 3.81902 13.0279 3.97675 13.0279 4.13604C13.0279 4.29533 12.9965 4.45306 12.9355 4.60021C12.8745 4.74736 12.7851 4.88104 12.6724 4.99361L12.636 5.02998C12.4963 5.17281 12.4026 5.35423 12.3669 5.55083C12.3313 5.74744 12.3554 5.95021 12.436 6.13301V6.18149C12.5129 6.36075 12.6404 6.51362 12.803 6.62131C12.9656 6.72899 13.1562 6.78678 13.3512 6.78755H13.4542C13.7757 6.78755 14.084 6.91526 14.3113 7.14258C14.5386 7.36989 14.6663 7.6782 14.6663 7.99967C14.6663 8.32115 14.5386 8.62946 14.3113 8.85677C14.084 9.08409 13.7757 9.2118 13.4542 9.2118H13.3997C13.2047 9.21257 13.0141 9.27036 12.8515 9.37804C12.6889 9.48572 12.5613 9.6386 12.4845 9.81786V9.81786Z" stroke="#2B8DFF" stroke-width="2" stroke-linecap="round" stroke-linejoin="round"/>
</svg>
