<svg width="24" height="24" viewBox="0 0 24 24" fill="none" xmlns="http://www.w3.org/2000/svg">
<g clip-path="url(#clip0)">
<path d="M3.01575 3.17191H3.34825V6.88285C3.34825 7.20644 3.61059 7.46878 3.93418 7.46878C4.25778 7.46878 4.52012 7.20644 4.52012 6.88285V2.58598C4.52012 2.26238 4.25778 2.00004 3.93418 2.00004H3.01575C2.69215 2.00004 2.42981 2.26238 2.42981 2.58598C2.42981 2.90957 2.69215 3.17191 3.01575 3.17191Z" fill="black"/>
<path d="M4.89387 13.5528C4.54829 13.5571 4.18442 13.5603 3.85958 13.5617C4.08063 13.2629 4.36762 12.8669 4.73372 12.3439C5.01106 11.9477 5.19231 11.5714 5.27255 11.2253C5.277 11.2062 5.28048 11.1868 5.28298 11.1673L5.3038 11.0043C5.30696 10.9796 5.30852 10.9548 5.30852 10.93C5.30852 10.0123 4.56192 9.26566 3.64423 9.26566C2.85071 9.26566 2.16387 9.83023 2.0111 10.608C1.94872 10.9256 2.15559 11.2335 2.47313 11.2959C2.79071 11.3582 3.09864 11.1514 3.16098 10.8339C3.20606 10.6042 3.4093 10.4375 3.64419 10.4375C3.90559 10.4375 4.12008 10.6423 4.13571 10.8998L4.12473 10.9859C4.08833 11.1256 3.99739 11.3522 3.77364 11.6719C3.10743 12.6239 2.70997 13.1442 2.49645 13.4239C2.22669 13.7771 2.07809 13.9716 2.1759 14.2897C2.23419 14.4791 2.37719 14.6243 2.5684 14.688C2.6477 14.7144 2.71126 14.7356 3.52934 14.7356C3.85411 14.7356 4.29782 14.7323 4.90864 14.7246C5.23219 14.7205 5.49122 14.4549 5.48719 14.1313C5.48305 13.8078 5.21696 13.5492 4.89387 13.5528Z" fill="black"/>
<path d="M3.74365 16.5312C2.95209 16.5312 2.26701 17.0944 2.11467 17.8703C2.05229 18.1878 2.25916 18.4958 2.5767 18.5581C2.89428 18.6204 3.20221 18.4136 3.26455 18.096C3.30928 17.8683 3.51076 17.7031 3.74365 17.7031C4.01291 17.7031 4.23193 17.9221 4.23193 18.1914C4.23193 18.4606 4.01291 18.6796 3.74365 18.6796C3.42006 18.6796 3.15771 18.942 3.15771 19.2656C3.15771 19.5892 3.42006 19.8515 3.74365 19.8515C4.01291 19.8515 4.23193 20.0705 4.23193 20.3398C4.23193 20.609 4.01291 20.8281 3.74365 20.8281C3.50139 20.8281 3.2935 20.6478 3.26014 20.4087C3.25697 20.386 3.25537 20.3629 3.25537 20.3398C3.25537 20.0162 2.99303 19.7539 2.66943 19.7539C2.34584 19.7539 2.0835 20.0162 2.0835 20.3398C2.0835 20.4168 2.08889 20.4944 2.09947 20.5706C2.21318 21.3855 2.92006 21.9999 3.74365 21.9999C4.65908 21.9999 5.40381 21.2552 5.40381 20.3398C5.40381 19.9304 5.25451 19.5553 5.00795 19.2656C5.25455 18.9758 5.40381 18.6008 5.40381 18.1914C5.40381 17.276 4.65904 16.5312 3.74365 16.5312Z" fill="black"/>
<path d="M20.3333 12H10.3333" stroke="#1D1D1E" stroke-width="2" stroke-linecap="round" stroke-linejoin="round"/>
<path d="M20.3333 4.33334H10.3333" stroke="#1D1D1E" stroke-width="2" stroke-linecap="round" stroke-linejoin="round"/>
<path d="M20.3333 19.6667H10.3333" stroke="#1D1D1E" stroke-width="2" stroke-linecap="round" stroke-linejoin="round"/>
</g>
<defs>
<clipPath id="clip0">
<rect width="20" height="20" fill="white" transform="translate(2 2)"/>
</clipPath>
</defs>
</svg>

