<svg width="24" height="24" viewBox="0 0 24 24" fill="none" xmlns="http://www.w3.org/2000/svg">
<g clip-path="url(#clip0)">
<path d="M12 12C14.2091 12 16 10.2091 16 8C16 5.79086 14.2091 4 12 4C9.79086 4 8 5.79086 8 8C8 10.2091 9.79086 12 12 12Z" fill="#858585"/>
<path d="M20 11C21.1046 11 22 10.1046 22 9C22 7.89543 21.1046 7 20 7C18.8954 7 18 7.89543 18 9C18 10.1046 18.8954 11 20 11Z" fill="#858585"/>
<path d="M4 11C5.10457 11 6 10.1046 6 9C6 7.89543 5.10457 7 4 7C2.89543 7 2 7.89543 2 9C2 10.1046 2.89543 11 4 11Z" fill="#858585"/>
<path d="M6 12.676C5.03197 11.902 4.15529 12.0045 3.03599 12.0045C1.36195 12.0045 0 13.3256 0 14.9491V19.714C0 20.4191 0.589761 20.9924 1.315 20.9924C4.44605 20.9924 4.06886 21.0477 4.06886 20.8606C4.06886 17.4842 3.65902 15.0081 6 12.676Z" fill="#858585"/>
<path d="M13.0694 13.0394C11.133 12.9176 9.44984 13.0408 7.99805 13.9446C5.56857 15.4122 6.03611 17.3882 6.03611 19.8056C6.03611 20.4452 6.72611 20.9753 7.58706 20.9753C16.9354 20.9753 17.3074 21.2027 17.8618 20.2769C18.0436 19.9638 17.9938 20.0633 17.9938 17.0682C17.9938 14.6892 15.2624 13.0394 13.0694 13.0394Z" fill="#858585"/>
<path d="M20.964 12.0044C19.8386 12.0044 18.9667 11.903 18 12.6758C20.3235 14.9906 19.9311 17.2977 19.9311 20.8603C19.9311 21.0485 19.618 20.9921 22.6381 20.9921C23.3892 20.9921 24 20.3983 24 19.6683V14.9489C24 13.3255 22.6381 12.0044 20.964 12.0044Z" fill="#858585"/>
</g>
<defs>
<clipPath id="clip0">
<rect width="24" height="24" fill="white"/>
</clipPath>
</defs>
</svg>
